<svg id="visual" viewBox="0 0 900 600" width="900" height="600" xmlns="http://www.w3.org/2000/svg" xmlns:xlink="http://www.w3.org/1999/xlink" version="1.1"><path d="M0 390L21.5 402.7C43 415.3 86 440.7 128.8 447.3C171.7 454 214.3 442 257.2 450.8C300 459.7 343 489.3 385.8 488C428.7 486.7 471.3 454.3 514.2 439.7C557 425 600 428 642.8 420.8C685.7 413.7 728.3 396.3 771.2 407.7C814 419 857 459 878.5 479L900 499L900 601L878.5 601C857 601 814 601 771.2 601C728.3 601 685.7 601 642.8 601C600 601 557 601 514.2 601C471.3 601 428.7 601 385.8 601C343 601 300 601 257.2 601C214.3 601 171.7 601 128.8 601C86 601 43 601 21.5 601L0 601Z" fill="#0066FF" stroke-linecap="round" stroke-linejoin="miter"></path></svg>