<svg id="visual" viewBox="0 0 900 600" width="900" height="600" xmlns="http://www.w3.org/2000/svg" xmlns:xlink="http://www.w3.org/1999/xlink" version="1.1"><path d="M0 508L21.5 498C43 488 86 468 128.8 468.5C171.7 469 214.3 490 257.2 485.5C300 481 343 451 385.8 434.7C428.7 418.3 471.3 415.7 514.2 431.5C557 447.3 600 481.7 642.8 494.8C685.7 508 728.3 500 771.2 479.5C814 459 857 426 878.5 409.5L900 393L900 601L878.5 601C857 601 814 601 771.2 601C728.3 601 685.7 601 642.8 601C600 601 557 601 514.2 601C471.3 601 428.7 601 385.8 601C343 601 300 601 257.2 601C214.3 601 171.7 601 128.8 601C86 601 43 601 21.5 601L0 601Z" fill="#0066FF" stroke-linecap="round" stroke-linejoin="miter"></path></svg>